<svg xmlns="http://www.w3.org/2000/svg" version="1.1" xmlns:xlink="http://www.w3.org/1999/xlink" xmlns:svgjs="http://svgjs.dev/svgjs" viewBox="0 0 13.589539407792087 3.0826696838836494"><g transform="matrix(1,0,0,1,2.8472877347644827,0.5573910919418248)"><g><path d=" M 0.063 0.7844999999999998 Q 0.07200000000000001 0.7904999999999998 0.12 0.8099999999999998 Q 0.168 0.8294999999999998 0.2325 0.8294999999999998 Q 0.279 0.8294999999999998 0.3075 0.8137499999999998 Q 0.336 0.7979999999999998 0.35025 0.7649999999999998 Q 0.3645 0.7319999999999998 0.36975 0.6787499999999997 Q 0.375 0.6254999999999997 0.375 0.5489999999999998 L 0.375 0.00749999999999984 L 0.6675 0.00749999999999984 L 0.6675 0.5489999999999998 Q 0.6675 0.6704999999999998 0.65325 0.7694999999999999 Q 0.639 0.8684999999999998 0.5955 0.9404999999999998 Q 0.552 1.0124999999999997 0.465 1.0507499999999999 Q 0.378 1.0889999999999997 0.2325 1.0889999999999997 Q 0.1635 1.0889999999999997 0.1065 1.0724999999999998 Q 0.0495 1.0559999999999998 0.0015 1.0229999999999997 L 0.063 0.7844999999999998 M 1.072470703125 0.00749999999999984 L 1.399470703125 0.00749999999999984 L 1.738470703125 1.0724999999999998 L 1.441470703125 1.0724999999999998 L 1.376970703125 0.8639999999999998 L 1.093470703125 0.8639999999999998 L 1.030470703125 1.0724999999999998 L 0.731970703125 1.0724999999999998 L 1.072470703125 0.00749999999999984 M 1.330470703125 0.6689999999999998 L 1.235970703125 0.2939999999999998 L 1.136970703125 0.6689999999999998 L 1.330470703125 0.6689999999999998 M 1.8419589843750002 1.0724999999999998 L 1.8419589843750002 0.00749999999999984 L 2.330958984375 0.00749999999999984 Q 2.4089589843750003 0.00749999999999984 2.474958984375 0.0389999999999997 Q 2.540958984375 0.07049999999999979 2.588958984375 0.1237499999999998 Q 2.636958984375 0.1769999999999997 2.663208984375 0.24299999999999977 Q 2.6894589843750003 0.3089999999999997 2.6894589843750003 0.3764999999999997 Q 2.6894589843750003 0.4379999999999997 2.6714589843750005 0.4949999999999998 Q 2.6534589843750003 0.5519999999999998 2.6189589843750003 0.5992499999999998 Q 2.5844589843750003 0.6464999999999999 2.5364589843750003 0.6809999999999998 L 2.7614589843750004 1.0724999999999998 L 2.440458984375 1.0724999999999998 L 2.252958984375 0.7454999999999998 L 2.134458984375 0.7454999999999998 L 2.134458984375 1.0724999999999998 L 1.8419589843750002 1.0724999999999998 M 2.134458984375 0.4904999999999998 L 2.3189589843750005 0.4904999999999998 Q 2.3369589843750003 0.4904999999999998 2.353458984375 0.47699999999999976 Q 2.369958984375 0.4634999999999998 2.381208984375 0.4379999999999997 Q 2.392458984375 0.41249999999999976 2.392458984375 0.3764999999999997 Q 2.392458984375 0.33899999999999975 2.379708984375 0.3142499999999998 Q 2.3669589843750005 0.28949999999999976 2.3482089843750003 0.2759999999999998 Q 2.329458984375 0.26249999999999973 2.311458984375 0.26249999999999973 L 2.134458984375 0.26249999999999973 L 2.134458984375 0.4904999999999998 M 3.628440673828125 0.8174999999999998 L 3.628440673828125 1.0724999999999998 L 2.8694406738281253 1.0724999999999998 L 2.8694406738281253 0.00749999999999984 L 3.6149406738281256 0.00749999999999984 L 3.6149406738281256 0.26249999999999973 L 3.1619406738281253 0.26249999999999973 L 3.1619406738281253 0.41249999999999976 L 3.5489406738281253 0.41249999999999976 L 3.5489406738281253 0.6494999999999997 L 3.1619406738281253 0.6494999999999997 L 3.1619406738281253 0.8174999999999998 L 3.628440673828125 0.8174999999999998 M 3.7799179687500004 1.0724999999999998 L 3.7799179687500004 0.00749999999999984 L 4.189417968750001 0.00749999999999984 Q 4.36641796875 0.00749999999999984 4.4856679687500005 0.07874999999999976 Q 4.604917968750001 0.1499999999999998 4.66566796875 0.2707499999999998 Q 4.726417968750001 0.39149999999999974 4.726417968750001 0.5384999999999998 Q 4.726417968750001 0.7004999999999998 4.659667968750001 0.8204999999999998 Q 4.59291796875 0.9404999999999998 4.472167968750001 1.0064999999999997 Q 4.351417968750001 1.0724999999999998 4.189417968750001 1.0724999999999998 L 3.7799179687500004 1.0724999999999998 M 4.42941796875 0.5384999999999998 Q 4.42941796875 0.45599999999999974 4.400917968750001 0.3937499999999998 Q 4.372417968750001 0.3314999999999998 4.31841796875 0.2969999999999998 Q 4.264417968750001 0.26249999999999973 4.189417968750001 0.26249999999999973 L 4.072417968750001 0.26249999999999973 L 4.072417968750001 0.8174999999999998 L 4.189417968750001 0.8174999999999998 Q 4.26591796875 0.8174999999999998 4.31916796875 0.7814999999999999 Q 4.372417968750001 0.7454999999999998 4.400917968750001 0.6817499999999999 Q 4.42941796875 0.6179999999999998 4.42941796875 0.5384999999999998 M 5.681886474609376 1.0799999999999998 Q 5.578386474609376 1.0799999999999998 5.484636474609376 1.0432499999999998 Q 5.390886474609376 1.0064999999999997 5.318886474609376 0.9352499999999998 Q 5.246886474609376 0.8639999999999998 5.205636474609376 0.7627499999999998 Q 5.164386474609376 0.6614999999999998 5.164386474609376 0.5309999999999998 Q 5.164386474609376 0.41849999999999976 5.206386474609376 0.3224999999999998 Q 5.248386474609376 0.2264999999999998 5.322636474609376 0.15374999999999972 Q 5.396886474609376 0.08099999999999974 5.495886474609375 0.04049999999999976 Q 5.594886474609376 -2.220446049250313e-16 5.7103864746093755 -2.220446049250313e-16 Q 5.854386474609376 -2.220446049250313e-16 5.971386474609376 0.062249999999999694 Q 6.088386474609376 0.12449999999999972 6.145386474609376 0.23249999999999982 L 5.927886474609376 0.3989999999999998 Q 5.8963864746093755 0.33599999999999974 5.833386474609376 0.29774999999999974 Q 5.770386474609376 0.25949999999999973 5.699886474609376 0.25949999999999973 Q 5.647386474609376 0.25949999999999973 5.603886474609376 0.28049999999999975 Q 5.560386474609376 0.30149999999999977 5.528136474609376 0.33899999999999975 Q 5.495886474609375 0.3764999999999997 5.478636474609376 0.4282499999999998 Q 5.461386474609376 0.47999999999999976 5.461386474609376 0.5414999999999998 Q 5.461386474609376 0.6044999999999998 5.479386474609376 0.6554999999999997 Q 5.4973864746093755 0.7064999999999998 5.529636474609376 0.7432499999999997 Q 5.561886474609376 0.7799999999999998 5.606886474609376 0.8002499999999998 Q 5.651886474609376 0.8204999999999998 5.707386474609375 0.8204999999999998 Q 5.777886474609375 0.8204999999999998 5.842386474609376 0.7852499999999998 Q 5.906886474609376 0.7499999999999998 5.959386474609376 0.6854999999999998 L 5.959386474609376 0.9704999999999998 Q 5.839386474609376 1.0799999999999998 5.681886474609376 1.0799999999999998 M 5.9443864746093755 0.7154999999999998 L 5.747886474609376 0.7154999999999998 L 5.747886474609376 0.5054999999999997 L 6.185886474609376 0.5054999999999997 L 6.185886474609376 1.0724999999999998 L 5.9443864746093755 1.0724999999999998 L 5.9443864746093755 0.7154999999999998 M 6.344906982421875 1.0724999999999998 L 6.344906982421875 0.00749999999999984 L 6.833906982421875 0.00749999999999984 Q 6.9119069824218755 0.00749999999999984 6.977906982421875 0.0389999999999997 Q 7.043906982421875 0.07049999999999979 7.091906982421875 0.1237499999999998 Q 7.139906982421875 0.1769999999999997 7.166156982421875 0.24299999999999977 Q 7.1924069824218755 0.3089999999999997 7.1924069824218755 0.3764999999999997 Q 7.1924069824218755 0.4379999999999997 7.174406982421876 0.4949999999999998 Q 7.156406982421876 0.5519999999999998 7.1219069824218755 0.5992499999999998 Q 7.087406982421875 0.6464999999999999 7.039406982421875 0.6809999999999998 L 7.2644069824218755 1.0724999999999998 L 6.943406982421876 1.0724999999999998 L 6.755906982421876 0.7454999999999998 L 6.637406982421876 0.7454999999999998 L 6.637406982421876 1.0724999999999998 L 6.344906982421875 1.0724999999999998 M 6.637406982421876 0.4904999999999998 L 6.821906982421876 0.4904999999999998 Q 6.8399069824218754 0.4904999999999998 6.856406982421875 0.47699999999999976 Q 6.872906982421876 0.4634999999999998 6.884156982421875 0.4379999999999997 Q 6.895406982421876 0.41249999999999976 6.895406982421876 0.3764999999999997 Q 6.895406982421876 0.33899999999999975 6.882656982421875 0.3142499999999998 Q 6.869906982421876 0.28949999999999976 6.851156982421875 0.2759999999999998 Q 6.832406982421875 0.26249999999999973 6.814406982421875 0.26249999999999973 L 6.637406982421876 0.26249999999999973 L 6.637406982421876 0.4904999999999998 M 8.131388671875001 0.8174999999999998 L 8.131388671875001 1.0724999999999998 L 7.372388671875001 1.0724999999999998 L 7.372388671875001 0.00749999999999984 L 8.117888671875 0.00749999999999984 L 8.117888671875 0.26249999999999973 L 7.664888671875001 0.26249999999999973 L 7.664888671875001 0.41249999999999976 L 8.051888671875002 0.41249999999999976 L 8.051888671875002 0.6494999999999997 L 7.664888671875001 0.6494999999999997 L 7.664888671875001 0.8174999999999998 L 8.131388671875001 0.8174999999999998 M 9.041865966796877 0.8174999999999998 L 9.041865966796877 1.0724999999999998 L 8.282865966796876 1.0724999999999998 L 8.282865966796876 0.00749999999999984 L 9.028365966796876 0.00749999999999984 L 9.028365966796876 0.26249999999999973 L 8.575365966796877 0.26249999999999973 L 8.575365966796877 0.41249999999999976 L 8.962365966796877 0.41249999999999976 L 8.962365966796877 0.6494999999999997 L 8.575365966796877 0.6494999999999997 L 8.575365966796877 0.8174999999999998 L 9.041865966796877 0.8174999999999998 M 9.485843261718752 0.5489999999999998 L 9.485843261718752 1.0724999999999998 L 9.193343261718752 1.0724999999999998 L 9.193343261718752 0.00749999999999984 L 9.421343261718752 0.00749999999999984 L 9.848843261718752 0.5489999999999998 L 9.848843261718752 0.00749999999999984 L 10.141343261718752 0.00749999999999984 L 10.141343261718752 1.0724999999999998 L 9.908843261718753 1.0724999999999998 L 9.485843261718752 0.5489999999999998" fill="#231f20" fill-rule="nonzero"></path></g><g><path d=" M 0.06675 1.9678874999999998 L 0.06675 1.4353874999999998 L 0.41625 1.4353874999999998 L 0.41625 1.4818874999999998 L 0.11925000000000001 1.4818874999999998 L 0.11925000000000001 1.6776375 L 0.36975 1.6776375 L 0.36975 1.7211374999999998 L 0.11925000000000001 1.7211374999999998 L 0.11925000000000001 1.9678874999999998 L 0.06675 1.9678874999999998 M 0.732741943359375 1.9716374999999997 Q 0.669741943359375 1.9716374999999997 0.626241943359375 1.9491374999999997 Q 0.582741943359375 1.9266374999999998 0.557241943359375 1.8887625 Q 0.531741943359375 1.8508874999999998 0.520116943359375 1.8028874999999998 Q 0.508491943359375 1.7548874999999997 0.508491943359375 1.7038874999999998 L 0.508491943359375 1.4353874999999998 L 0.560241943359375 1.4353874999999998 L 0.560241943359375 1.7038874999999998 Q 0.560241943359375 1.7451374999999998 0.568866943359375 1.7848874999999997 Q 0.577491943359375 1.8246374999999997 0.596991943359375 1.8561374999999998 Q 0.616491943359375 1.8876374999999999 0.649491943359375 1.9060124999999999 Q 0.682491943359375 1.9243874999999997 0.731991943359375 1.9243874999999997 Q 0.782991943359375 1.9243874999999997 0.816366943359375 1.9052624999999999 Q 0.849741943359375 1.8861374999999998 0.868866943359375 1.8546374999999997 Q 0.887991943359375 1.8231374999999999 0.896241943359375 1.7837624999999997 Q 0.904491943359375 1.7443874999999998 0.904491943359375 1.7038874999999998 L 0.904491943359375 1.4353874999999998 L 0.956991943359375 1.4353874999999998 L 0.956991943359375 1.7038874999999998 Q 0.956991943359375 1.7571374999999998 0.944991943359375 1.8058874999999999 Q 0.932991943359375 1.8546374999999997 0.9063669433593751 1.8913874999999998 Q 0.879741943359375 1.9281374999999998 0.836991943359375 1.9498874999999998 Q 0.794241943359375 1.9716374999999997 0.732741943359375 1.9716374999999997 M 1.0897456054687502 1.9678874999999998 L 1.0897456054687502 1.4353874999999998 L 1.1422456054687502 1.4353874999999998 L 1.1422456054687502 1.9213874999999998 L 1.44974560546875 1.9213874999999998 L 1.44974560546875 1.9678874999999998 L 1.0897456054687502 1.9678874999999998 M 1.5345014648437503 1.9678874999999998 L 1.5345014648437503 1.4353874999999998 L 1.5870014648437503 1.4353874999999998 L 1.5870014648437503 1.9213874999999998 L 1.8945014648437501 1.9213874999999998 L 1.8945014648437501 1.9678874999999998 L 1.5345014648437503 1.9678874999999998 M 1.9095300292968753 1.7871374999999998 L 1.9095300292968753 1.7398874999999998 L 2.128530029296875 1.7398874999999998 L 2.128530029296875 1.7871374999999998 L 1.9095300292968753 1.7871374999999998 M 2.56277783203125 1.5351374999999998 Q 2.55152783203125 1.5223874999999998 2.53652783203125 1.5122624999999998 Q 2.52152783203125 1.5021375 2.50277783203125 1.4946374999999998 Q 2.4840278320312503 1.4871374999999998 2.46265283203125 1.4826374999999998 Q 2.44127783203125 1.4781374999999999 2.41727783203125 1.4781374999999999 Q 2.34752783203125 1.4781374999999999 2.31490283203125 1.5047624999999998 Q 2.2822778320312502 1.5313874999999997 2.2822778320312502 1.5771374999999999 Q 2.2822778320312502 1.6086374999999997 2.29765283203125 1.6266374999999997 Q 2.31302783203125 1.6446374999999998 2.34602783203125 1.6558874999999997 Q 2.37902783203125 1.6671374999999997 2.43002783203125 1.6791374999999997 Q 2.48702783203125 1.6911374999999997 2.5282778320312502 1.7076374999999997 Q 2.56952783203125 1.7241374999999999 2.59202783203125 1.7522624999999998 Q 2.61452783203125 1.7803874999999998 2.61452783203125 1.8283874999999998 Q 2.61452783203125 1.8651375 2.6002778320312503 1.8921374999999998 Q 2.58602783203125 1.9191374999999997 2.56052783203125 1.9371374999999997 Q 2.53502783203125 1.9551374999999998 2.49977783203125 1.9637624999999999 Q 2.46452783203125 1.9723874999999997 2.42252783203125 1.9723874999999997 Q 2.38127783203125 1.9723874999999997 2.3434028320312503 1.9637624999999999 Q 2.3055278320312502 1.9551374999999998 2.2717778320312503 1.9382624999999998 Q 2.23802783203125 1.9213874999999998 2.20877783203125 1.8951374999999997 L 2.23502783203125 1.8523874999999999 Q 2.2492778320312503 1.8673874999999998 2.26915283203125 1.8805124999999998 Q 2.28902783203125 1.8936374999999999 2.31340283203125 1.9041374999999998 Q 2.33777783203125 1.9146374999999998 2.3659028320312503 1.9202624999999998 Q 2.39402783203125 1.9258874999999998 2.4240278320312503 1.9258874999999998 Q 2.48777783203125 1.9258874999999998 2.52340283203125 1.9026374999999998 Q 2.55902783203125 1.8793874999999998 2.55902783203125 1.8336374999999998 Q 2.55902783203125 1.8006374999999997 2.5410278320312503 1.7807624999999998 Q 2.52302783203125 1.7608874999999997 2.48702783203125 1.7481375 Q 2.45102783203125 1.7353874999999999 2.39852783203125 1.7233874999999999 Q 2.3430278320312503 1.7106374999999998 2.30477783203125 1.6948874999999997 Q 2.26652783203125 1.6791374999999997 2.2474028320312502 1.6532624999999999 Q 2.22827783203125 1.6273874999999998 2.22827783203125 1.5846374999999997 Q 2.22827783203125 1.5351374999999998 2.25265283203125 1.5010124999999999 Q 2.27702783203125 1.4668875 2.3197778320312503 1.4492624999999997 Q 2.36252783203125 1.4316375 2.41802783203125 1.4316375 Q 2.45327783203125 1.4316375 2.4836528320312503 1.4387624999999997 Q 2.51402783203125 1.4458874999999998 2.5399028320312502 1.4593874999999996 Q 2.56577783203125 1.4728874999999997 2.5882778320312503 1.4931374999999998 L 2.56277783203125 1.5351374999999998 M 3.0915413818359374 1.4818874999999998 L 2.9017913818359373 1.4818874999999998 L 2.9017913818359373 1.9678874999999998 L 2.8492913818359376 1.9678874999999998 L 2.8492913818359376 1.4818874999999998 L 2.6595413818359375 1.4818874999999998 L 2.6595413818359375 1.4353874999999998 L 3.0915413818359374 1.4353874999999998 L 3.0915413818359374 1.4818874999999998 M 3.292535522460937 1.4353874999999998 L 3.3367855224609375 1.4353874999999998 L 3.5580355224609375 1.9678874999999998 L 3.502535522460937 1.9678874999999998 L 3.433535522460937 1.8013874999999997 L 3.1942855224609374 1.8013874999999997 L 3.126035522460937 1.9678874999999998 L 3.069785522460937 1.9678874999999998 L 3.292535522460937 1.4353874999999998 M 3.421535522460937 1.7601374999999997 L 3.314285522460937 1.4968874999999997 L 3.2055355224609374 1.7601374999999997 L 3.421535522460937 1.7601374999999997 M 3.587303833007812 1.6978874999999998 Q 3.587303833007812 1.6491374999999997 3.604178833007812 1.6022624999999997 Q 3.621053833007812 1.5553874999999997 3.6533038330078123 1.5167624999999998 Q 3.685553833007812 1.4781374999999999 3.732803833007812 1.4552625 Q 3.780053833007812 1.4323875 3.8400538330078122 1.4323875 Q 3.9113038330078123 1.4323875 3.961928833007812 1.4650124999999998 Q 4.0125538330078125 1.4976374999999997 4.036553833007812 1.5486375 L 3.995303833007812 1.5741374999999997 Q 3.978053833007812 1.5388874999999997 3.951803833007812 1.5182624999999998 Q 3.925553833007812 1.4976374999999997 3.895928833007812 1.4886374999999998 Q 3.8663038330078123 1.4796374999999997 3.837053833007812 1.4796374999999997 Q 3.789053833007812 1.4796374999999997 3.752303833007812 1.4987624999999998 Q 3.715553833007812 1.5178874999999998 3.690428833007812 1.5497624999999997 Q 3.6653038330078123 1.5816374999999998 3.6525538330078122 1.6210124999999997 Q 3.639803833007812 1.6603874999999997 3.639803833007812 1.7008874999999999 Q 3.639803833007812 1.7451374999999998 3.6548038330078123 1.7856374999999998 Q 3.669803833007812 1.8261374999999997 3.696803833007812 1.8572624999999998 Q 3.7238038330078123 1.8883874999999999 3.7601788330078123 1.9067624999999997 Q 3.796553833007812 1.9251374999999997 3.839303833007812 1.9251374999999997 Q 3.869303833007812 1.9251374999999997 3.9008038330078123 1.9146374999999998 Q 3.932303833007812 1.9041374999999998 3.9596788330078123 1.8823874999999999 Q 3.987053833007812 1.8606374999999997 4.003553833007812 1.8261374999999997 L 4.047053833007812 1.8486374999999997 Q 4.030553833007812 1.8883874999999999 3.996053833007812 1.9161374999999998 Q 3.961553833007812 1.9438874999999998 3.919178833007812 1.9581374999999999 Q 3.8768038330078123 1.9723874999999997 3.836303833007812 1.9723874999999997 Q 3.7815538330078122 1.9723874999999997 3.7358038330078123 1.9487624999999997 Q 3.6900538330078123 1.9251374999999997 3.656678833007812 1.8857624999999998 Q 3.623303833007812 1.8463874999999998 3.605303833007812 1.7972624999999998 Q 3.587303833007812 1.7481375 3.587303833007812 1.6978874999999998 M 4.144534423828125 1.9678874999999998 L 4.144534423828125 1.4361374999999996 L 4.197034423828125 1.4361374999999996 L 4.197034423828125 1.7451374999999998 L 4.4902844238281245 1.4353874999999998 L 4.548034423828125 1.4353874999999998 L 4.330534423828125 1.6693874999999998 L 4.5592844238281245 1.9678874999999998 L 4.500034423828125 1.9678874999999998 L 4.296784423828125 1.7008874999999999 L 4.197034423828125 1.8043874999999998 L 4.197034423828125 1.9678874999999998 L 4.144534423828125 1.9678874999999998 M 4.824024169921875 1.9678874999999998 L 4.824024169921875 1.4353874999999998 L 5.004774169921875 1.4353874999999998 Q 5.089524169921876 1.4353874999999998 5.146149169921875 1.4710124999999998 Q 5.2027741699218755 1.5066374999999999 5.231274169921876 1.5670124999999997 Q 5.259774169921876 1.6273874999999998 5.259774169921876 1.7008874999999999 Q 5.259774169921876 1.7818874999999998 5.228649169921876 1.8418875 Q 5.197524169921875 1.9018874999999997 5.140149169921876 1.9348874999999999 Q 5.082774169921875 1.9678874999999998 5.004774169921875 1.9678874999999998 L 4.824024169921875 1.9678874999999998 M 5.207274169921876 1.7008874999999999 Q 5.207274169921876 1.6371374999999997 5.183649169921876 1.5876374999999998 Q 5.160024169921876 1.5381374999999997 5.115024169921876 1.5100124999999998 Q 5.070024169921876 1.4818874999999998 5.004774169921875 1.4818874999999998 L 4.8765241699218755 1.4818874999999998 L 4.8765241699218755 1.9213874999999998 L 5.004774169921875 1.9213874999999998 Q 5.070774169921876 1.9213874999999998 5.115774169921876 1.8921374999999998 Q 5.160774169921876 1.8628874999999998 5.184024169921876 1.8130124999999997 Q 5.207274169921876 1.7631374999999998 5.207274169921876 1.7008874999999999 M 5.725544311523438 1.9213874999999998 L 5.725544311523438 1.9678874999999998 L 5.367794311523438 1.9678874999999998 L 5.367794311523438 1.4353874999999998 L 5.718794311523438 1.4353874999999998 L 5.718794311523438 1.4818874999999998 L 5.420294311523438 1.4818874999999998 L 5.420294311523438 1.6738874999999998 L 5.680544311523438 1.6738874999999998 L 5.680544311523438 1.7181374999999999 L 5.420294311523438 1.7181374999999999 L 5.420294311523438 1.9213874999999998 L 5.725544311523438 1.9213874999999998 M 5.829800903320313 1.4353874999999998 L 6.020300903320313 1.9026374999999998 L 6.2100509033203135 1.4353874999999998 L 6.264800903320314 1.4353874999999998 L 6.0443009033203134 1.9678874999999998 L 5.996300903320313 1.9678874999999998 L 5.775050903320314 1.4353874999999998 L 5.829800903320313 1.4353874999999998" fill="#bf0000" fill-rule="nonzero"></path></g><g clip-path="url(&quot;#SvgjsClipPath1001&quot;)"><g clip-path="url(&quot;#a62610844-9f2f-457e-b450-bcf6b172d70eb8b140f4-1b39-488f-aaa6-b1cbb321f12a&quot;)"><path d=" M -1.5006854341307296 1.2323164173504733 L -1.662723527538932 1.2323164173504733 C -1.7313583910040338 1.2323164173504733 -1.7875172042207383 1.2884726787058056 -1.7875172042207383 1.3571100940322793 L -1.7875172042207383 1.358733077864961 C -1.7875172042207383 1.4273704931914346 -1.7313583910040338 1.4835267545467672 -1.662723527538932 1.4835267545467672 L -0.7757373443647113 1.4835267545467672 C -0.7373675567732008 1.4835267545467672 -0.705977110034496 1.5149197531468444 -0.705977110034496 1.5532869888769827 L -0.705977110034496 1.653307195358045" fill="none" transform="matrix(1,0,0,1,0,0)" fill-rule="nonzero" stroke-dasharray="none" stroke-miterlimit="10" stroke-linejoin="miter" stroke-linecap="butt" stroke-width="0.012999181829685715" stroke="#231f20"></path></g><g clip-path="url(&quot;#a62610844-9f2f-457e-b450-bcf6b172d70eb8b140f4-1b39-488f-aaa6-b1cbb321f12a&quot;)"><path d=" M -0.4116990084605803 1.2085024470256542 L -2.326220243602425 1.2085024470256542 L -2.326220243602425 0.04791079125323135 C -2.326220243602425 0.0013878065777307158 -2.2885062843835553 -0.03632615264113962 -2.241983299708054 -0.03632615264113962 L -0.4959359523549509 -0.03632615264113962 C -0.4494129676794505 -0.03632615264113962 -0.4116990084605803 0.0013878065777307158 -0.4116990084605803 0.04791079125323135 Z" fill="#5a5758" transform="matrix(1,0,0,1,0,0)" fill-rule="nonzero"></path></g><g clip-path="url(&quot;#a62610844-9f2f-457e-b450-bcf6b172d70eb8b140f4-1b39-488f-aaa6-b1cbb321f12a&quot;)"><path d=" M -0.4116990084605803 1.2085024470256542 L -2.326220243602425 1.2085024470256542 L -2.326220243602425 0.04791079125323135 C -2.326220243602425 0.0013878065777307158 -2.2885062843835553 -0.03632615264113962 -2.241983299708054 -0.03632615264113962 L -0.4959359523549509 -0.03632615264113962 C -0.4494129676794505 -0.03632615264113962 -0.4116990084605803 0.0013878065777307158 -0.4116990084605803 0.04791079125323135 Z" fill="none" transform="matrix(1,0,0,1,0,0)" fill-rule="nonzero" stroke-dasharray="none" stroke-miterlimit="10" stroke-linejoin="miter" stroke-linecap="butt" stroke-width="0.02339801692115986" stroke="#231f20"></path></g><g clip-path="url(&quot;#a62610844-9f2f-457e-b450-bcf6b172d70eb8b140f4-1b39-488f-aaa6-b1cbb321f12a&quot;)"><path d=" M -2.3262202436024255 1.2085024470256542 L -0.41170156032195204 1.2085024470256542 L -0.41170156032195204 1.3176965951395632 C -0.41170156032195204 1.3642195798150638 -0.44941551954082226 1.401933539033934 -0.49593850421632313 1.401933539033934 L -2.2419858515694266 1.401933539033934 C -2.2885088362449273 1.401933539033934 -2.3262227954637975 1.3642170279536916 -2.3262227954637975 1.3176965951395632 Z" fill="#ffffff" transform="matrix(1,0,0,1,0,0)" fill-rule="nonzero"></path></g><g clip-path="url(&quot;#a62610844-9f2f-457e-b450-bcf6b172d70eb8b140f4-1b39-488f-aaa6-b1cbb321f12a&quot;)"><path d=" M -2.3262202436024255 1.2085024470256542 L -0.41170156032195204 1.2085024470256542 L -0.41170156032195204 1.3176965951395632 C -0.41170156032195204 1.3642195798150638 -0.44941551954082226 1.401933539033934 -0.49593850421632313 1.401933539033934 L -2.2419858515694266 1.401933539033934 C -2.2885088362449273 1.401933539033934 -2.3262227954637975 1.3642170279536916 -2.3262227954637975 1.3176965951395632 Z" fill="none" transform="matrix(1,0,0,1,0,0)" fill-rule="nonzero" stroke-dasharray="none" stroke-miterlimit="10" stroke-linejoin="miter" stroke-linecap="butt" stroke-width="0.02339801692115986" stroke="#231f20"></path></g><g clip-path="url(&quot;#SvgjsClipPath1000b8b140f4-1b39-488f-aaa6-b1cbb321f12a&quot;)"><path d=" M -1.470894750803943 1.3052168542588098 L -1.2670188901994903 1.3052168542588098" fill="none" transform="matrix(1,0,0,1,0,0)" fill-rule="nonzero" stroke-dasharray="none" stroke-miterlimit="10" stroke-linejoin="miter" stroke-linecap="butt" stroke-width="0.02339801692115986" stroke="#231f20"></path></g><g clip-path="url(&quot;#SvgjsClipPath1000b8b140f4-1b39-488f-aaa6-b1cbb321f12a&quot;)"><path d=" M -2.227720946499159 1.1088165343843424 L -2.1677777228675694 1.1088165343843424 L -2.1677777228675694 0.1281923500207838 L -2.227720946499159 0.1281923500207838 Z M -2.227720946499159 0.12532916156124177 L -0.5102008574252186 0.12532916156124177 L -0.5102008574252186 0.06538593792965203 L -2.227720946499159 0.06538593792965203 Z" fill="#d3d2d2" transform="matrix(1,0,0,1,0,0)" fill-rule="nonzero" stroke-dasharray="none" stroke-miterlimit="10" stroke-linejoin="miter" stroke-linecap="butt" stroke-width="0.02339801692115986" stroke="#231f20"></path></g><g clip-path="url(&quot;#SvgjsClipPath1000b8b140f4-1b39-488f-aaa6-b1cbb321f12a&quot;)"><path d=" M -2.167776659542555 0.1385756463620792 L -2.167776659542555 0.0677946674830072" fill="none" transform="matrix(1,0,0,1,0,0)" fill-rule="nonzero" stroke-dasharray="none" stroke-miterlimit="10" stroke-linejoin="miter" stroke-linecap="butt" stroke-width="0.02339801692115986" stroke="#231f20"></path></g><g clip-path="url(&quot;#SvgjsClipPath1000b8b140f4-1b39-488f-aaa6-b1cbb321f12a&quot;)"><path d=" M -2.1805855150943447 0.11252136933446646 L -2.214910602411012 0.11252136933446646 L -2.214910602411012 0.07819628201779913 L -2.1805855150943447 0.07819628201779913 Z" fill="#67c5f0" transform="matrix(1,0,0,1,0,0)" fill-rule="nonzero"></path></g><g clip-path="url(&quot;#SvgjsClipPath1000b8b140f4-1b39-488f-aaa6-b1cbb321f12a&quot;)"><path d=" M -0.5102008574252186 1.1088165343843424 L -2.1677777228675694 1.1088165343843424 L -2.1677777228675694 0.1281923500207838 L -0.5102008574252186 0.1281923500207838 Z" fill="#ffffff" transform="matrix(1,0,0,1,0,0)" fill-rule="nonzero" stroke-dasharray="none" stroke-miterlimit="10" stroke-linejoin="miter" stroke-linecap="butt" stroke-width="0.02339801692115986" stroke="#231f20"></path></g><g clip-path="url(&quot;#SvgjsClipPath1000b8b140f4-1b39-488f-aaa6-b1cbb321f12a&quot;)"><path d=" M -2.167776659542555 0.2734635479211426 L -0.5101997941002046 0.2734635479211426" fill="none" transform="matrix(1,0,0,1,0,0)" fill-rule="nonzero" stroke-dasharray="none" stroke-miterlimit="10" stroke-linejoin="miter" stroke-linecap="butt" stroke-width="0.02339801692115986" stroke="#231f20"></path></g><g clip-path="url(&quot;#SvgjsClipPath1000b8b140f4-1b39-488f-aaa6-b1cbb321f12a&quot;)"><path d=" M -1.868632048435782 0.13104636056036298 L -1.868632048435782 0.27346319187817414" fill="none" transform="matrix(1,0,0,1,0,0)" fill-rule="nonzero" stroke-dasharray="none" stroke-miterlimit="10" stroke-linejoin="miter" stroke-linecap="butt" stroke-width="0.02339801692115986" stroke="#231f20"></path></g><g clip-path="url(&quot;#SvgjsClipPath1000b8b140f4-1b39-488f-aaa6-b1cbb321f12a&quot;)"><path d=" M -1.8135806054259789 0.2022530403399389 L -0.5647608945731566 0.2022530403399389" fill="none" transform="matrix(1,0,0,1,0,0)" fill-rule="nonzero" stroke-dasharray="none" stroke-miterlimit="10" stroke-linejoin="miter" stroke-linecap="butt" stroke-width="0.02339801692115986" stroke="#231f20"></path></g><g clip-path="url(&quot;#SvgjsClipPath1000b8b140f4-1b39-488f-aaa6-b1cbb321f12a&quot;)"><path d=" M -2.082389889494363 0.219224900749166 L -2.1167149768110303 0.219224900749166 L -2.1167149768110303 0.18489981343249867 L -2.082389889494363 0.18489981343249867 Z M -2.0027258811788684 0.219224900749166 L -2.0370509684955356 0.219224900749166 L -2.0370509684955356 0.18489981343249867 L -2.0027258811788684 0.18489981343249867 Z M -1.923061872863374 0.219224900749166 L -1.9573869601800413 0.219224900749166 L -1.9573869601800413 0.18489981343249867 L -1.923061872863374 0.18489981343249867 Z" fill="#231f20" transform="matrix(1,0,0,1,0,0)" fill-rule="nonzero"></path></g><g clip-path="url(&quot;#SvgjsClipPath1000b8b140f4-1b39-488f-aaa6-b1cbb321f12a&quot;)"><path d=" M -1.0382524274395897 1.7388813146114175 L -1.699666824623416 1.7388813146114175 L -1.699666824623416 1.657765297175175 L -1.0382524274395897 1.657765297175175 Z" fill="#ffffff" transform="matrix(1,0,0,1,0,0)" fill-rule="nonzero" stroke-dasharray="none" stroke-miterlimit="10" stroke-linejoin="miter" stroke-linecap="butt" stroke-width="0.02339801692115986" stroke="#231f20"></path></g><g clip-path="url(&quot;#SvgjsClipPath1000b8b140f4-1b39-488f-aaa6-b1cbb321f12a&quot;)"><path d=" M -1.2084032541833587 1.401933917986295 L -1.1577411503622455 1.657763124266164 L -1.5801737300450769 1.657763124266164 L -1.5295116262239639 1.401933917986295 Z" fill="#ffffff" transform="matrix(1,0,0,1,0,0)" fill-rule="nonzero"></path></g><g clip-path="url(&quot;#SvgjsClipPath1000b8b140f4-1b39-488f-aaa6-b1cbb321f12a&quot;)"><path d=" M -1.2084032541833587 1.401933917986295 L -1.1577411503622455 1.657763124266164 L -1.5801737300450769 1.657763124266164 L -1.5295116262239639 1.401933917986295 Z" fill="none" transform="matrix(1,0,0,1,0,0)" fill-rule="nonzero" stroke-dasharray="none" stroke-miterlimit="10" stroke-linejoin="miter" stroke-linecap="butt" stroke-width="0.02339801692115986" stroke="#231f20"></path></g><g clip-path="url(&quot;#SvgjsClipPath1000b8b140f4-1b39-488f-aaa6-b1cbb321f12a&quot;)"><path d=" M -0.6033463493697333 1.0023477742158802 L -2.0732184997228886 1.0023477742158802 L -2.0732184997228886 0.3661381118046894 L -0.6033463493697333 0.3661381118046894 Z" fill="#67c5f0" transform="matrix(1,0,0,1,0,0)" fill-rule="nonzero"></path></g><g clip-path="url(&quot;#b62610844-9f2f-457e-b450-bcf6b172d70eb8b140f4-1b39-488f-aaa6-b1cbb321f12a&quot;)"><path d=" M -0.5082614427823915 2.008983081545671 L -0.904899807715623 2.008983081545671 C -0.9339833717739128 2.008983081545671 -0.9575600189911224 1.985406434328461 -0.9575600189911224 1.9563228702701712 L -0.9575600189911224 1.6165680471833326 C -0.9575600189911224 1.587484483125043 -0.9339833717739128 1.5639078359078333 -0.904899807715623 1.5639078359078333 L -0.5082614427823915 1.5639078359078333 C -0.47917787872410167 1.5639078359078333 -0.4556012315068918 1.587484483125043 -0.4556012315068918 1.6165680471833326 L -0.4556012315068918 1.9563228702701712 C -0.4556012315068918 1.985406434328461 -0.47917787872410167 2.008983081545671 -0.5082614427823915 2.008983081545671" fill="#f03f52" transform="matrix(1,0,0,1,0,0)" fill-rule="nonzero"></path></g><g clip-path="url(&quot;#b62610844-9f2f-457e-b450-bcf6b172d70eb8b140f4-1b39-488f-aaa6-b1cbb321f12a&quot;)"><path d=" M -0.5082614427823915 2.008983081545671 L -0.904899807715623 2.008983081545671 C -0.9339833717739128 2.008983081545671 -0.9575600189911224 1.985406434328461 -0.9575600189911224 1.9563228702701712 L -0.9575600189911224 1.6165680471833326 C -0.9575600189911224 1.587484483125043 -0.9339833717739128 1.5639078359078333 -0.904899807715623 1.5639078359078333 L -0.5082614427823915 1.5639078359078333 C -0.47917787872410167 1.5639078359078333 -0.4556012315068918 1.587484483125043 -0.4556012315068918 1.6165680471833326 L -0.4556012315068918 1.9563228702701712 C -0.4556012315068918 1.985406434328461 -0.47917787872410167 2.008983081545671 -0.5082614427823915 2.008983081545671 Z" fill="none" transform="matrix(1,0,0,1,0,0)" fill-rule="nonzero" stroke-dasharray="none" stroke-miterlimit="10" stroke-linejoin="miter" stroke-linecap="butt" stroke-width="0.013859159112097197" stroke="#231f20"></path></g><g clip-path="url(&quot;#b62610844-9f2f-457e-b450-bcf6b172d70eb8b140f4-1b39-488f-aaa6-b1cbb321f12a&quot;)"><path d=" M -0.7065819011796932 1.9452962772811502 C -0.7606966734373131 1.9452962772811502 -0.8049740201053297 1.9010189306131335 -0.8049740201053297 1.846904158355514 L -0.8049740201053297 1.7208779326309633 C -0.8049740201053297 1.6667631603733437 -0.7606966734373131 1.622485813705327 -0.7065819011796932 1.622485813705327 C -0.6524671289220736 1.622485813705327 -0.6081897822540567 1.6667631603733437 -0.6081897822540567 1.7208779326309633 L -0.6081897822540567 1.846904158355514 C -0.6081897822540567 1.9010189306131335 -0.6524671289220736 1.9452962772811502 -0.7065819011796932 1.9452962772811502" fill="#ffffff" transform="matrix(1,0,0,1,0,0)" fill-rule="nonzero"></path></g><g clip-path="url(&quot;#b62610844-9f2f-457e-b450-bcf6b172d70eb8b140f4-1b39-488f-aaa6-b1cbb321f12a&quot;)"><path d=" M -0.7065819011796932 1.9452962772811502 C -0.7606966734373131 1.9452962772811502 -0.8049740201053297 1.9010189306131335 -0.8049740201053297 1.846904158355514 L -0.8049740201053297 1.7208779326309633 C -0.8049740201053297 1.6667631603733437 -0.7606966734373131 1.622485813705327 -0.7065819011796932 1.622485813705327 C -0.6524671289220736 1.622485813705327 -0.6081897822540567 1.6667631603733437 -0.6081897822540567 1.7208779326309633 L -0.6081897822540567 1.846904158355514 C -0.6081897822540567 1.9010189306131335 -0.6524671289220736 1.9452962772811502 -0.7065819011796932 1.9452962772811502 Z" fill="none" transform="matrix(1,0,0,1,0,0)" fill-rule="nonzero" stroke-dasharray="none" stroke-miterlimit="10" stroke-linejoin="miter" stroke-linecap="butt" stroke-width="0.013859159112097197" stroke="#231f20"></path></g><g clip-path="url(&quot;#SvgjsClipPath1000b8b140f4-1b39-488f-aaa6-b1cbb321f12a&quot;)"><path d=" M -0.8049682738286652 1.730577482337057 L -0.6129304981295742 1.730577482337057 M -0.7065761549030287 1.622485738335913 L -0.7065761549030287 1.730577482337057" fill="none" transform="matrix(1,0,0,1,0,0)" fill-rule="nonzero" stroke-dasharray="none" stroke-miterlimit="10" stroke-linejoin="miter" stroke-linecap="butt" stroke-width="0.013859159112097197" stroke="#231f20"></path></g><g clip-path="url(&quot;#c62610844-9f2f-457e-b450-bcf6b172d70eb8b140f4-1b39-488f-aaa6-b1cbb321f12a&quot;)"><path d=" M -1.9019528755930246 2.0075157612566894 L -2.098295641426917 2.0075157612566894 C -2.123941848216933 2.0075157612566894 -2.144729310954393 1.9867257466578576 -2.144729310954393 1.9610820917292138 L -2.144729310954393 1.5128195712375723 C -2.144729310954393 1.4871759163089284 -2.123941848216933 1.4663884535714686 -2.098295641426917 1.4663884535714686 L -1.9019528755930246 1.4663884535714686 C -1.8763066688030086 1.4663884535714686 -1.8555192060655488 1.4871759163089284 -1.8555192060655488 1.5128195712375723 L -1.8555192060655488 1.9610820917292138 C -1.8555192060655488 1.9867257466578576 -1.8763066688030086 2.0075157612566894 -1.9019528755930246 2.0075157612566894 M -2.144729310954393 1.5400785544147813 L -1.8555192060655488 1.5400785544147813" fill="#ffffff" transform="matrix(1,0,0,1,0,0)" fill-rule="nonzero"></path></g><g clip-path="url(&quot;#c62610844-9f2f-457e-b450-bcf6b172d70eb8b140f4-1b39-488f-aaa6-b1cbb321f12a&quot;)"><path d=" M -1.9019528755930246 2.0075157612566894 L -2.098295641426917 2.0075157612566894 C -2.123941848216933 2.0075157612566894 -2.144729310954393 1.9867257466578576 -2.144729310954393 1.9610820917292138 L -2.144729310954393 1.5128195712375723 C -2.144729310954393 1.4871759163089284 -2.123941848216933 1.4663884535714686 -2.098295641426917 1.4663884535714686 L -1.9019528755930246 1.4663884535714686 C -1.8763066688030086 1.4663884535714686 -1.8555192060655488 1.4871759163089284 -1.8555192060655488 1.5128195712375723 L -1.8555192060655488 1.9610820917292138 C -1.8555192060655488 1.9867257466578576 -1.8763066688030086 2.0075157612566894 -1.9019528755930246 2.0075157612566894 Z M -2.144729310954393 1.5400785544147813 L -1.8555192060655488 1.5400785544147813" fill="none" transform="matrix(1,0,0,1,0,0)" fill-rule="nonzero" stroke-dasharray="none" stroke-miterlimit="10" stroke-linejoin="miter" stroke-linecap="butt" stroke-width="0.012999181829685715" stroke="#231f20"></path></g><g clip-path="url(&quot;#SvgjsClipPath1000b8b140f4-1b39-488f-aaa6-b1cbb321f12a&quot;)"><path d=" M -1.8946290334549802 1.7865500850430098 L -2.1045681166796393 1.7865500850430098 L -2.1045681166796393 1.5842232042914468 L -1.8946290334549802 1.5842232042914468 Z" fill="#67c5f0" transform="matrix(1,0,0,1,0,0)" fill-rule="nonzero"></path></g><g clip-path="url(&quot;#SvgjsClipPath1000b8b140f4-1b39-488f-aaa6-b1cbb321f12a&quot;)"><path d=" M -2.1045662573632766 1.8292830890101406 L -1.8946271741386176 1.8292830890101406" fill="none" transform="matrix(1,0,0,1,0,0)" fill-rule="nonzero" stroke-dasharray="none" stroke-miterlimit="10" stroke-linejoin="miter" stroke-linecap="butt" stroke-width="0.012999181829685715" stroke="#231f20"></path></g><g clip-path="url(&quot;#SvgjsClipPath1000b8b140f4-1b39-488f-aaa6-b1cbb321f12a&quot;)"><path d=" M -2.1045662573632766 1.8713965625182656 L -1.8946271741386176 1.8713965625182656" fill="none" transform="matrix(1,0,0,1,0,0)" fill-rule="nonzero" stroke-dasharray="none" stroke-miterlimit="10" stroke-linejoin="miter" stroke-linecap="butt" stroke-width="0.012999181829685715" stroke="#231f20"></path></g><g clip-path="url(&quot;#SvgjsClipPath1000b8b140f4-1b39-488f-aaa6-b1cbb321f12a&quot;)"><path d=" M -2.1045662573632766 1.9135119499272046 L -1.8946271741386176 1.9135119499272046" fill="none" transform="matrix(1,0,0,1,0,0)" fill-rule="nonzero" stroke-dasharray="none" stroke-miterlimit="10" stroke-linejoin="miter" stroke-linecap="butt" stroke-width="0.012999181829685715" stroke="#231f20"></path></g><g clip-path="url(&quot;#SvgjsClipPath1000b8b140f4-1b39-488f-aaa6-b1cbb321f12a&quot;)"><path d=" M -2.1045662573632766 1.9556254234353294 L -1.8946271741386176 1.9556254234353294" fill="none" transform="matrix(1,0,0,1,0,0)" fill-rule="nonzero" stroke-dasharray="none" stroke-miterlimit="10" stroke-linejoin="miter" stroke-linecap="butt" stroke-width="0.012999181829685715" stroke="#231f20"></path></g><g clip-path="url(&quot;#SvgjsClipPath1000b8b140f4-1b39-488f-aaa6-b1cbb321f12a&quot;)"><path d=" M -2.0854980566456307 1.5128195712375723 L -2.1045681166796393 1.5128195712375723 L -2.1045681166796393 1.4937495112035635 L -2.0854980566456307 1.4937495112035635 Z M -2.0441885247534137 1.5128195712375723 L -2.0632585847874227 1.5128195712375723 L -2.0632585847874227 1.4937495112035635 L -2.0441885247534137 1.4937495112035635 Z M -2.0028789928611967 1.5128195712375723 L -2.0219490528952058 1.5128195712375723 L -2.0219490528952058 1.4937495112035635 L -2.0028789928611967 1.4937495112035635 Z" fill="#231f20" transform="matrix(1,0,0,1,0,0)" fill-rule="nonzero"></path></g><g clip-path="url(&quot;#SvgjsClipPath1000b8b140f4-1b39-488f-aaa6-b1cbb321f12a&quot;)"><path d=" M -2.2921017425099377 1.584964080617135 L -2.2589938930677818 1.5385202036441707 L -2.22559257956783 1.5849615287557628" fill="#ffffff" transform="matrix(1,0,0,1,0,0)" fill-rule="nonzero" stroke-dasharray="none" stroke-miterlimit="10" stroke-linejoin="miter" stroke-linecap="butt" stroke-width="0.012999181829685715" stroke="#231f20"></path></g><g clip-path="url(&quot;#SvgjsClipPath1000b8b140f4-1b39-488f-aaa6-b1cbb321f12a&quot;)"><path d=" M -2.2267920689597 2.0075132093953174 L -2.2909203452416005 2.0075132093953174 L -2.2909203452416005 1.5880714112406351 L -2.2267920689597 1.5880714112406351 Z" fill="#67c5f0" transform="matrix(1,0,0,1,0,0)" fill-rule="nonzero"></path></g><g clip-path="url(&quot;#d62610844-9f2f-457e-b450-bcf6b172d70eb8b140f4-1b39-488f-aaa6-b1cbb321f12a&quot;)"><path d=" M -2.2267920689597 2.0075132093953174 L -2.2909203452416005 2.0075132093953174 L -2.2909203452416005 1.5880714112406351 L -2.2267920689597 1.5880714112406351 Z" fill="none" transform="matrix(1,0,0,1,0,0)" fill-rule="nonzero" stroke-dasharray="none" stroke-miterlimit="10" stroke-linejoin="miter" stroke-linecap="butt" stroke-width="0.012999181829685715" stroke="#231f20"></path></g><g clip-path="url(&quot;#SvgjsClipPath1000b8b140f4-1b39-488f-aaa6-b1cbb321f12a&quot;)"><path d=" M -2.2267920689597 1.9556262121155767 L -2.2909203452416005 1.9556262121155767 L -2.2909203452416005 1.9114892178230278 L -2.2267920689597 1.9114892178230278 Z" fill="#f03f52" transform="matrix(1,0,0,1,0,0)" fill-rule="nonzero" stroke-dasharray="none" stroke-miterlimit="10" stroke-linejoin="miter" stroke-linecap="butt" stroke-width="0.012999181829685715" stroke="#231f20"></path></g><g clip-path="url(&quot;#SvgjsClipPath1000b8b140f4-1b39-488f-aaa6-b1cbb321f12a&quot;)"><path d=" M -0.7065784607898684 1.5544239653304077 L -0.7065784607898684 1.63542004528216" fill="none" transform="matrix(1,0,0,1,0,0)" fill-rule="nonzero" stroke-dasharray="none" stroke-miterlimit="10" stroke-linejoin="miter" stroke-linecap="butt" stroke-width="0.012999181829685715" stroke="#231f20"></path></g></g></g><defs><clipPath id="SvgjsClipPath1001"><path d=" M -2.3379218039243774 -0.048025161101719505 h 1.9379218039243773 v 2.063937822203439 h -1.9379218039243773 Z"></path></clipPath><clipPath id="a62610844-9f2f-457e-b450-bcf6b172d70eb8b140f4-1b39-488f-aaa6-b1cbb321f12a"><path d=" M -2.3379205279936914 2.0159113851710333 L -0.40000127593068613 2.0159113851710333 L -0.40000127593068613 -0.04802388517103343 L -2.3379205279936914 -0.04802388517103343 Z"></path></clipPath><clipPath id="SvgjsClipPath1000b8b140f4-1b39-488f-aaa6-b1cbb321f12a"><path d=" M -2.3379218039243774 -0.048025161101719505 L -0.40000000000000013 -0.048025161101719505 L -0.40000000000000013 2.0159126611017193 L -2.3379218039243774 2.0159126611017193 Z"></path></clipPath><clipPath id="b62610844-9f2f-457e-b450-bcf6b172d70eb8b140f4-1b39-488f-aaa6-b1cbb321f12a"><path d=" M -2.3379205279936914 2.0159113851710333 L -0.40000127593068613 2.0159113851710333 L -0.40000127593068613 -0.04802388517103343 L -2.3379205279936914 -0.04802388517103343 Z"></path></clipPath><clipPath id="c62610844-9f2f-457e-b450-bcf6b172d70eb8b140f4-1b39-488f-aaa6-b1cbb321f12a"><path d=" M -2.3379205279936914 2.0159113851710333 L -0.40000127593068613 2.0159113851710333 L -0.40000127593068613 -0.04802388517103343 L -2.3379205279936914 -0.04802388517103343 Z"></path></clipPath><clipPath id="d62610844-9f2f-457e-b450-bcf6b172d70eb8b140f4-1b39-488f-aaa6-b1cbb321f12a"><path d=" M -2.3379205279936914 2.0159113851710333 L -0.40000127593068613 2.0159113851710333 L -0.40000127593068613 -0.04802388517103343 L -2.3379205279936914 -0.04802388517103343 Z"></path></clipPath></defs></svg>